<?xml version="1.0" encoding="UTF-8"?>
<svg xmlns="http://www.w3.org/2000/svg" version="1.1" viewBox="0 0 191 54">
  <defs>
    <style>
      .cls-1 {
        fill: #ec1c24;
      }
    </style>
  </defs>
  <!-- Generator: Adobe Illustrator 28.6.0, SVG Export Plug-In . SVG Version: 1.2.0 Build 709)  -->
  <g>
    <g id="Layer_1">
      <g>
        <rect class="cls-1" x="73.91" y="21.86" width="1.16" height="9.68"/>
        <rect class="cls-1" x="120.66" y="16.17" width="1.16" height="21.05"/>
        <path class="cls-1" d="M84.75,29.74h.04c-.06-.23-.1-.46-.1-.68v-7.2h1.16v9.68h-1.16l-5.06-7.77h-.04c.07.23.1.46.1.68v7.09h-1.16v-9.68h1.16l5.06,7.88Z"/>
        <path class="cls-1" d="M90.47,27.66v3.87h-1.16v-9.68h5.12c.22,0,.44.09.66.28l.33.28c.22.18.33.42.33.69v3.32c0,.28-.11.51-.33.69l-.33.28c-.22.18-.44.28-.66.28h-3.95ZM90.47,22.82v3.87h3.44c.16,0,.27,0,.32-.02.05-.01.11-.05.19-.12.08-.06.13-.12.14-.16.01-.04.02-.13.02-.27v-2.74c0-.14,0-.23-.02-.27-.01-.04-.06-.1-.14-.16-.08-.06-.15-.1-.19-.12-.05-.01-.15-.02-.32-.02h-3.44Z"/>
        <path class="cls-1" d="M105.05,21.86h1.16v8.43c0,.28-.11.51-.33.69l-.33.28c-.22.18-.44.28-.66.28h-4.7c-.22,0-.44-.09-.67-.28l-.33-.28c-.22-.18-.33-.41-.33-.69v-8.43h1.16v8.14c0,.14,0,.23.02.27.01.04.06.1.15.16.08.06.15.1.19.12.04.01.15.02.32.02h3.68c.17,0,.27,0,.32-.02.05-.01.11-.05.19-.12.08-.06.13-.12.14-.16.02-.04.02-.13.02-.27v-8.14Z"/>
        <polygon class="cls-1" points="108.21 21.86 115.51 21.86 115.51 22.82 112.44 22.82 112.44 31.53 111.28 31.53 111.28 22.82 108.21 22.82 108.21 21.86"/>
        <path class="cls-1" d="M9.82,7.46c-.1-.88-.87-1.56-1.77-1.56-.98,0-1.77.79-1.77,1.77s.79,1.77,1.76,1.77c.86,0,1.57-.61,1.73-1.42,12.9.11,23.45,7.74,24.28,17.34-.68-1.32-1.98-3.49-4.11-5.68-3.07-3.17-8.5-6.95-16.91-6.95-.03,0-.06,0-.09.02-.14-.84-.87-1.47-1.74-1.47-.97,0-1.77.79-1.77,1.77s.79,1.77,1.77,1.77c.9,0,1.64-.67,1.75-1.54.03,0,.06.01.08.01,8.21,0,13.5,3.68,16.5,6.76,1.92,1.98,3.17,3.98,3.88,5.29-.92-.83-2.34-2-4.12-3.17-2.99-1.96-7.66-4.29-12.91-4.3-.13-.85-.86-1.5-1.74-1.5-.97,0-1.77.79-1.77,1.77s.79,1.77,1.77,1.77c.88,0,1.61-.65,1.74-1.49,7.84.01,14.48,5.34,16.86,7.52-2.64-.95-8.95-3.03-13.68-3.12-.07-.91-.83-1.63-1.76-1.63-.97,0-1.77.79-1.77,1.77s.79,1.77,1.77,1.77c.83,0,1.53-.63,1.71-1.41,4.67.08,10.97,2.19,13.57,3.05h-9.13c-.1-.86-.85-1.51-1.75-1.51-.97,0-1.76.82-1.76,1.79s.79,1.74,1.76,1.74c.86,0,1.57-.59,1.73-1.45h9.02c-2.67,1.14-8.84,3.01-13.44,3.09-.18-.78-.88-1.34-1.71-1.34-.97,0-1.77.8-1.77,1.78s.79,1.77,1.77,1.77,1.69-.72,1.76-1.62c4.73-.09,11.04-2.17,13.68-3.12-2.38,2.17-9.02,7.51-16.86,7.52-.13-.84-.86-1.49-1.74-1.49-.97,0-1.77.79-1.77,1.77s.79,1.77,1.77,1.77c.88,0,1.61-.65,1.74-1.5,5.25,0,9.91-2.34,12.91-4.3,1.82-1.19,3.25-2.39,4.17-3.22-.69,1.3-1.95,3.34-3.91,5.36-3,3.09-8.29,6.78-16.51,6.78-.03,0-.05,0-.08.01-.09-.89-.84-1.59-1.75-1.59-.97,0-1.77.79-1.77,1.77s.79,1.77,1.77,1.77c.86,0,1.58-.62,1.73-1.43.03.01.07.02.1.02,8.41,0,13.84-3.78,16.91-6.95,2.09-2.16,3.39-4.3,4.08-5.62-1.05,9.46-11.54,16.91-24.31,17-.24-.69-.9-1.19-1.67-1.19-.97,0-1.77.79-1.77,1.77s.79,1.77,1.77,1.77,1.77-.79,1.77-1.77c0,0,.04-.02.04-.03,13.64-.13,24.6-8.54,24.88-18.91v-.21c0-10.47-11.16-19-24.9-19.12M9.23,7.85c-.09.58-.59,1.02-1.2,1.02-.67,0-1.22-.55-1.22-1.22s.55-1.22,1.22-1.22,1.17.5,1.21,1.14c-.03.04-.04.09-.04.15,0,.04.01.08.03.12M11.19,14.24c-.67,0-1.22-.55-1.22-1.22s.55-1.22,1.22-1.22,1.22.55,1.22,1.22-.55,1.22-1.22,1.22M14.63,19.33c-.67,0-1.22-.55-1.22-1.22s.55-1.22,1.22-1.22,1.22.55,1.22,1.22-.55,1.22-1.22,1.22M18.99,23.17c-.11.55-.6.98-1.19.98-.67,0-1.22-.55-1.22-1.22s.54-1.21,1.22-1.21,1.2.54,1.21,1.2c-.03.04-.04.1-.04.15,0,.04,0,.08.02.11M22.2,27.86c-.67,0-1.21-.55-1.21-1.22s.54-1.22,1.21-1.22,1.22.55,1.22,1.22-.54,1.22-1.22,1.22M17.8,31.67c-.67,0-1.22-.54-1.22-1.22s.54-1.22,1.22-1.22c.59,0,1.08.42,1.19.98-.02.03-.02.07-.02.11,0,.05.02.11.04.15,0,.66-.55,1.2-1.21,1.2M14.63,36.49c-.67,0-1.22-.55-1.22-1.22s.55-1.22,1.22-1.22,1.22.54,1.22,1.22-.55,1.22-1.22,1.22M11.19,41.58c-.67,0-1.22-.54-1.22-1.21s.55-1.21,1.22-1.21,1.22.54,1.22,1.21-.55,1.21-1.22,1.21M8.03,46.94c-.67,0-1.22-.55-1.22-1.22s.55-1.21,1.22-1.21c.56,0,1.03.38,1.17.9,0,0,0,.01,0,.02,0,.04.01.09.03.13,0,.06.01.11.01.17,0,.67-.54,1.22-1.21,1.22"/>
      </g>
      <g>
        <path d="M128.93,21.86h5.06c.22,0,.44.09.66.28l.33.28c.22.18.33.41.33.69v7.19c0,.28-.11.51-.33.69l-.33.28c-.22.18-.44.28-.66.28h-5.06c-.22,0-.44-.09-.66-.28l-.33-.28c-.22-.18-.33-.42-.33-.69v-7.19c0-.28.11-.51.33-.69l.33-.28c.22-.18.44-.28.66-.28M134.16,30v-6.61c0-.14,0-.23-.02-.27-.01-.04-.06-.09-.14-.16-.08-.06-.15-.1-.19-.12-.05-.01-.15-.02-.32-.02h-4.04c-.17,0-.27,0-.32.02-.05.01-.11.05-.19.12-.08.07-.13.12-.14.16-.01.04-.02.13-.02.27v6.61c0,.14,0,.23.02.27.01.04.06.1.14.16.08.06.15.1.19.12.05.01.15.02.32.02h4.04c.17,0,.27,0,.32-.02.05-.01.11-.05.19-.12.08-.06.13-.12.14-.16.01-.04.02-.13.02-.27"/>
        <path d="M144.97,21.86h1.16v8.43c0,.28-.11.51-.33.69l-.33.28c-.22.18-.44.28-.66.28h-4.7c-.22,0-.44-.09-.66-.28l-.33-.28c-.22-.18-.33-.41-.33-.69v-8.43h1.16v8.14c0,.14,0,.23.02.27.01.04.06.1.14.16.08.06.15.1.19.12.04.01.15.02.32.02h3.68c.16,0,.27,0,.32-.02.05-.01.11-.05.19-.12.08-.06.13-.12.14-.16.02-.04.02-.13.02-.27v-8.14Z"/>
        <polygon points="148.12 21.86 155.42 21.86 155.42 22.82 152.35 22.82 152.35 31.53 151.19 31.53 151.19 22.82 148.12 22.82 148.12 21.86"/>
        <path d="M158.59,27.66v3.87h-1.16v-9.68h5.12c.22,0,.44.09.66.28l.33.28c.22.18.33.42.33.69v3.32c0,.28-.11.51-.33.69l-.33.28c-.22.18-.44.28-.66.28h-3.96ZM158.59,22.82v3.87h3.44c.17,0,.27,0,.32-.02.05-.01.11-.05.2-.12.08-.06.13-.12.14-.16s.02-.13.02-.27v-2.74c0-.14,0-.23-.02-.27-.01-.04-.06-.1-.14-.16-.08-.06-.15-.1-.2-.12-.04-.01-.15-.02-.32-.02h-3.44Z"/>
        <path d="M173.17,21.86h1.16v8.43c0,.28-.11.51-.33.69l-.33.28c-.22.18-.44.28-.66.28h-4.7c-.22,0-.44-.09-.66-.28l-.33-.28c-.22-.18-.33-.41-.33-.69v-8.43h1.16v8.14c0,.14,0,.23.02.27.01.04.06.1.14.16.08.06.15.1.19.12.05.01.15.02.32.02h3.68c.17,0,.27,0,.32-.02.04-.01.11-.05.19-.12.08-.06.13-.12.14-.16.01-.04.02-.13.02-.27v-8.14Z"/>
        <polygon points="176.33 21.86 183.62 21.86 183.62 22.82 180.56 22.82 180.56 31.53 179.39 31.53 179.39 22.82 176.33 22.82 176.33 21.86"/>
        <path d="M35.57,26.79c.29,10.37,11.17,18.78,24.81,18.91,0,0-.02.02-.02.03,0,.97.78,1.77,1.76,1.77s1.76-.79,1.76-1.77-.79-1.77-1.77-1.77c-.77,0-1.43.5-1.67,1.19-12.78-.09-23.26-7.55-24.32-17,.69,1.33,1.99,3.46,4.08,5.62,3.07,3.17,8.5,6.95,16.91,6.95.04,0,.07,0,.1-.02.16.81.88,1.43,1.73,1.43.97,0,1.77-.79,1.77-1.77s-.79-1.77-1.77-1.77c-.91,0-1.67.7-1.76,1.58-.02,0-.05-.01-.08-.01-8.22,0-13.52-3.69-16.51-6.78-1.96-2.02-3.22-4.06-3.91-5.36.92.83,2.35,2.03,4.17,3.22,2.99,1.96,7.66,4.29,12.91,4.3.13.85.86,1.5,1.74,1.5.97,0,1.77-.79,1.77-1.77s-.79-1.77-1.77-1.77c-.88,0-1.61.64-1.74,1.49-7.84-.01-14.48-5.34-16.86-7.52,2.64.95,8.95,3.03,13.68,3.12.07.91.83,1.62,1.76,1.62.97,0,1.77-.8,1.77-1.78s-.79-1.78-1.77-1.78c-.83,0-1.53.58-1.72,1.35-4.59-.08-10.76-1.95-13.44-3.09h9.02c.16.86.88,1.44,1.73,1.44.97,0,1.77-.76,1.77-1.73s-.79-1.78-1.77-1.78c-.9,0-1.65.64-1.75,1.5h-9.12c2.6-.86,8.9-2.97,13.56-3.05.19.78.88,1.42,1.72,1.42.97,0,1.77-.8,1.77-1.77s-.79-1.77-1.77-1.77-1.69.72-1.76,1.62c-4.73.09-11.04,2.17-13.68,3.12,2.38-2.17,9.02-7.51,16.86-7.52.13.84.86,1.49,1.74,1.49.97,0,1.77-.79,1.77-1.77s-.79-1.77-1.77-1.77c-.88,0-1.61.65-1.74,1.5-5.25,0-9.91,2.34-12.91,4.3-1.78,1.17-3.2,2.34-4.12,3.17.7-1.31,1.95-3.31,3.88-5.29,3-3.08,8.29-6.76,16.5-6.76.03,0,.06,0,.08-.01.11.87.85,1.54,1.75,1.54.97,0,1.77-.79,1.77-1.77s-.79-1.77-1.77-1.77c-.87,0-1.6.64-1.74,1.47-.03-.01-.06-.02-.09-.02-8.41,0-13.84,3.78-16.91,6.95-2.13,2.2-3.43,4.37-4.11,5.69.84-9.6,11.38-17.23,24.29-17.34.16.81.88,1.42,1.73,1.42.97,0,1.77-.79,1.77-1.77s-.79-1.77-1.76-1.77c-.91,0-1.62.68-1.72,1.56-13.74.13-24.83,8.66-24.83,19.12v.21ZM60.92,7.85s.03-.08.03-.12c0-.05-.02-.1-.04-.15.04-.64.57-1.14,1.21-1.14s1.22.55,1.22,1.22-.55,1.22-1.22,1.22c-.61,0-1.11-.45-1.2-1.03M57.74,13.03c0-.67.55-1.22,1.22-1.22s1.22.55,1.22,1.22-.55,1.22-1.22,1.22-1.22-.55-1.22-1.22M54.3,18.12c0-.67.54-1.22,1.22-1.22s1.22.54,1.22,1.22-.55,1.22-1.22,1.22-1.22-.55-1.22-1.22M46.74,26.65c0-.67.54-1.21,1.22-1.21s1.22.54,1.22,1.21-.54,1.22-1.22,1.22-1.22-.55-1.22-1.22M54.3,35.27c0-.67.54-1.22,1.22-1.22s1.22.54,1.22,1.22-.55,1.21-1.22,1.21-1.22-.54-1.22-1.21M57.74,40.36c0-.67.55-1.22,1.22-1.22s1.22.55,1.22,1.22-.55,1.21-1.22,1.21-1.22-.54-1.22-1.21M60.91,45.73c0-.06,0-.11.01-.17.02-.04.03-.08.03-.13,0,0,0-.02,0-.02.14-.52.61-.9,1.17-.9.67,0,1.22.54,1.22,1.21s-.55,1.22-1.22,1.22-1.22-.55-1.22-1.22M51.16,23.17s.02-.07.02-.11c0-.05-.02-.11-.05-.15.01-.66.55-1.2,1.22-1.2s1.21.54,1.21,1.21-.54,1.22-1.21,1.22c-.59,0-1.08-.42-1.19-.98M51.14,30.47s.05-.1.05-.15c0-.04,0-.08-.02-.11.11-.56.6-.98,1.19-.98.67,0,1.21.55,1.21,1.22s-.54,1.22-1.21,1.22-1.2-.54-1.22-1.2"/>
      </g>
    </g>
  </g>
</svg>