<svg width="118" height="36" viewBox="0 0 118 36" fill="none" xmlns="http://www.w3.org/2000/svg">
<path d="M8.5295 3.57944H18.7096C19.1757 3.57944 19.6239 3.7595 19.9604 4.08203L28.4147 12.1841C28.7705 12.525 28.9717 12.9965 28.9717 13.4893V30.7761C28.9717 31.7746 28.1623 32.5839 27.1639 32.5839H8.5295C7.53107 32.5839 6.72168 31.7746 6.72168 30.7761V5.38725C6.72168 4.38882 7.53107 3.57944 8.5295 3.57944Z" stroke-width="1.80782" stroke="white"/>
<path d="M23.2452 8.5771L23.2505 8.5821L23.2559 8.587L27.765 12.6901L19.0781 12.6901L19.0781 4.66045L23.2452 8.5771Z" fill="white" stroke-width="1.80691" stroke="white"/>
<path d="M40.252 21.618L39.406 19.926C39.91 19.926 40.312 19.848 40.612 19.692C40.924 19.536 41.152 19.296 41.296 18.972C41.452 18.648 41.53 18.234 41.53 17.73V8.514H43.744V18.252C43.744 18.96 43.6 19.566 43.312 20.07C43.036 20.574 42.634 20.958 42.106 21.222C41.59 21.486 40.972 21.618 40.252 21.618ZM42.682 6.498C42.226 6.498 41.872 6.39 41.62 6.174C41.38 5.946 41.26 5.628 41.26 5.22C41.26 4.836 41.386 4.524 41.638 4.284C41.89 4.044 42.238 3.924 42.682 3.924C43.126 3.924 43.468 4.038 43.708 4.266C43.96 4.482 44.086 4.8 44.086 5.22C44.086 5.592 43.96 5.898 43.708 6.138C43.456 6.378 43.114 6.498 42.682 6.498ZM46.3937 21.96V8.514H48.5717L48.6077 10.674L48.2297 10.512C48.3017 10.14 48.5057 9.792 48.8417 9.468C49.1777 9.132 49.5857 8.862 50.0657 8.658C50.5577 8.454 51.0677 8.352 51.5957 8.352C52.4357 8.352 53.1797 8.562 53.8277 8.982C54.4877 9.402 55.0037 9.978 55.3757 10.71C55.7597 11.442 55.9517 12.288 55.9517 13.248C55.9517 14.196 55.7597 15.042 55.3757 15.786C55.0037 16.518 54.4877 17.1 53.8277 17.532C53.1797 17.952 52.4477 18.162 51.6317 18.162C51.0797 18.162 50.5457 18.054 50.0297 17.838C49.5257 17.622 49.0937 17.34 48.7337 16.992C48.3857 16.644 48.1697 16.278 48.0857 15.894L48.6257 15.642V21.96H46.3937ZM51.1817 16.2C51.6857 16.2 52.1357 16.074 52.5317 15.822C52.9277 15.57 53.2337 15.222 53.4497 14.778C53.6777 14.334 53.7917 13.824 53.7917 13.248C53.7917 12.672 53.6837 12.168 53.4677 11.736C53.2517 11.292 52.9457 10.944 52.5497 10.692C52.1537 10.44 51.6977 10.314 51.1817 10.314C50.6537 10.314 50.1917 10.44 49.7957 10.692C49.4117 10.932 49.1057 11.274 48.8777 11.718C48.6497 12.162 48.5357 12.672 48.5357 13.248C48.5357 13.824 48.6497 14.334 48.8777 14.778C49.1057 15.222 49.4117 15.57 49.7957 15.822C50.1917 16.074 50.6537 16.2 51.1817 16.2ZM62.1909 22.14C61.4829 22.14 60.7749 22.032 60.0669 21.816C59.3709 21.6 58.8069 21.318 58.3749 20.97L59.1669 19.332C59.4189 19.512 59.7009 19.668 60.0129 19.8C60.3249 19.932 60.6549 20.034 61.0029 20.106C61.3629 20.178 61.7169 20.214 62.0649 20.214C62.7009 20.214 63.2289 20.112 63.6489 19.908C64.0809 19.716 64.4049 19.416 64.6209 19.008C64.8369 18.612 64.9449 18.114 64.9449 17.514V15.768L65.2689 15.894C65.1969 16.266 64.9989 16.62 64.6749 16.956C64.3509 17.292 63.9429 17.568 63.4509 17.784C62.9589 17.988 62.4549 18.09 61.9389 18.09C61.0389 18.09 60.2409 17.88 59.5449 17.46C58.8609 17.04 58.3149 16.47 57.9069 15.75C57.5109 15.018 57.3129 14.178 57.3129 13.23C57.3129 12.282 57.5109 11.442 57.9069 10.71C58.3029 9.966 58.8429 9.384 59.5269 8.964C60.2229 8.532 61.0029 8.316 61.8669 8.316C62.2269 8.316 62.5749 8.358 62.9109 8.442C63.2469 8.526 63.5529 8.646 63.8289 8.802C64.1169 8.958 64.3749 9.132 64.6029 9.324C64.8309 9.516 65.0169 9.72 65.1609 9.936C65.3049 10.152 65.3949 10.362 65.4309 10.566L64.9629 10.71L64.9989 8.514H67.1769V17.352C67.1769 18.12 67.0629 18.798 66.8349 19.386C66.6069 19.974 66.2769 20.472 65.8449 20.88C65.4129 21.3 64.8909 21.612 64.2789 21.816C63.6669 22.032 62.9709 22.14 62.1909 22.14ZM62.2809 16.2C62.8209 16.2 63.2949 16.074 63.7029 15.822C64.1229 15.57 64.4469 15.222 64.6749 14.778C64.9029 14.334 65.0169 13.824 65.0169 13.248C65.0169 12.66 64.8969 12.144 64.6569 11.7C64.4289 11.244 64.1109 10.89 63.7029 10.638C63.2949 10.386 62.8209 10.26 62.2809 10.26C61.7409 10.26 61.2669 10.392 60.8589 10.656C60.4509 10.908 60.1269 11.262 59.8869 11.718C59.6589 12.162 59.5449 12.672 59.5449 13.248C59.5449 13.812 59.6589 14.322 59.8869 14.778C60.1269 15.222 60.4509 15.57 60.8589 15.822C61.2669 16.074 61.7409 16.2 62.2809 16.2ZM70.5834 18.198C70.1514 18.198 69.8154 18.072 69.5754 17.82C69.3474 17.568 69.2334 17.214 69.2334 16.758C69.2334 16.338 69.3534 15.996 69.5934 15.732C69.8454 15.456 70.1754 15.318 70.5834 15.318C71.0154 15.318 71.3454 15.444 71.5734 15.696C71.8134 15.936 71.9334 16.29 71.9334 16.758C71.9334 17.178 71.8074 17.526 71.5554 17.802C71.3154 18.066 70.9914 18.198 70.5834 18.198ZM77.1945 18.18C76.3545 18.18 75.5985 18.042 74.9265 17.766C74.2665 17.478 73.7265 17.07 73.3065 16.542L74.7465 15.3C75.1065 15.708 75.5085 16.002 75.9525 16.182C76.3965 16.362 76.8645 16.452 77.3565 16.452C77.5605 16.452 77.7405 16.428 77.8965 16.38C78.0645 16.332 78.2085 16.26 78.3285 16.164C78.4485 16.068 78.5385 15.96 78.5985 15.84C78.6705 15.708 78.7065 15.564 78.7065 15.408C78.7065 15.12 78.5985 14.892 78.3825 14.724C78.2625 14.64 78.0705 14.55 77.8065 14.454C77.5545 14.358 77.2245 14.262 76.8165 14.166C76.1685 13.998 75.6285 13.806 75.1965 13.59C74.7645 13.362 74.4285 13.11 74.1885 12.834C73.9845 12.606 73.8285 12.348 73.7205 12.06C73.6245 11.772 73.5765 11.46 73.5765 11.124C73.5765 10.704 73.6665 10.326 73.8465 9.99C74.0385 9.642 74.2965 9.342 74.6205 9.09C74.9445 8.838 75.3225 8.646 75.7545 8.514C76.1865 8.382 76.6365 8.316 77.1045 8.316C77.5845 8.316 78.0465 8.376 78.4905 8.496C78.9465 8.616 79.3665 8.79 79.7505 9.018C80.1465 9.234 80.4825 9.498 80.7585 9.81L79.5345 11.16C79.3065 10.944 79.0545 10.752 78.7785 10.584C78.5145 10.416 78.2445 10.284 77.9685 10.188C77.6925 10.08 77.4345 10.026 77.1945 10.026C76.9665 10.026 76.7625 10.05 76.5825 10.098C76.4025 10.134 76.2525 10.194 76.1325 10.278C76.0125 10.362 75.9165 10.47 75.8445 10.602C75.7845 10.722 75.7545 10.866 75.7545 11.034C75.7665 11.178 75.8025 11.316 75.8625 11.448C75.9345 11.568 76.0305 11.67 76.1505 11.754C76.2825 11.838 76.4805 11.934 76.7445 12.042C77.0085 12.15 77.3505 12.252 77.7705 12.348C78.3585 12.504 78.8505 12.678 79.2465 12.87C79.6425 13.062 79.9545 13.284 80.1825 13.536C80.4105 13.752 80.5725 14.004 80.6685 14.292C80.7645 14.58 80.8125 14.898 80.8125 15.246C80.8125 15.81 80.6505 16.314 80.3265 16.758C80.0145 17.202 79.5825 17.55 79.0305 17.802C78.4905 18.054 77.8785 18.18 77.1945 18.18ZM83.7888 18V6.102H86.0028V18H83.7888ZM81.9168 10.566V8.514H88.0728V10.566H81.9168ZM94.009 18.18C93.061 18.18 92.215 17.97 91.471 17.55C90.727 17.118 90.139 16.53 89.707 15.786C89.275 15.042 89.059 14.196 89.059 13.248C89.059 12.3 89.275 11.454 89.707 10.71C90.139 9.966 90.727 9.384 91.471 8.964C92.215 8.532 93.061 8.316 94.009 8.316C94.945 8.316 95.785 8.532 96.529 8.964C97.273 9.384 97.855 9.966 98.275 10.71C98.707 11.454 98.923 12.3 98.923 13.248C98.923 14.196 98.707 15.042 98.275 15.786C97.855 16.53 97.273 17.118 96.529 17.55C95.785 17.97 94.945 18.18 94.009 18.18ZM94.009 16.218C94.525 16.218 94.981 16.086 95.377 15.822C95.785 15.558 96.103 15.204 96.331 14.76C96.571 14.316 96.685 13.812 96.673 13.248C96.685 12.672 96.571 12.162 96.331 11.718C96.103 11.274 95.785 10.926 95.377 10.674C94.981 10.41 94.525 10.278 94.009 10.278C93.493 10.278 93.025 10.41 92.605 10.674C92.197 10.926 91.879 11.28 91.651 11.736C91.423 12.18 91.309 12.684 91.309 13.248C91.309 13.812 91.423 14.316 91.651 14.76C91.879 15.204 92.197 15.558 92.605 15.822C93.025 16.086 93.493 16.218 94.009 16.218ZM100.903 18V8.514H103.081L103.117 11.538L102.811 10.854C102.943 10.374 103.171 9.942 103.495 9.558C103.819 9.174 104.191 8.874 104.611 8.658C105.043 8.43 105.493 8.316 105.961 8.316C106.165 8.316 106.357 8.334 106.537 8.37C106.729 8.406 106.885 8.448 107.005 8.496L106.411 10.926C106.279 10.854 106.117 10.794 105.925 10.746C105.733 10.698 105.541 10.674 105.349 10.674C105.049 10.674 104.761 10.734 104.485 10.854C104.221 10.962 103.987 11.118 103.783 11.322C103.579 11.526 103.417 11.766 103.297 12.042C103.189 12.306 103.135 12.606 103.135 12.942V18H100.903ZM112.521 18.18C111.525 18.18 110.643 17.97 109.875 17.55C109.119 17.13 108.525 16.56 108.093 15.84C107.673 15.108 107.463 14.274 107.463 13.338C107.463 12.594 107.583 11.916 107.823 11.304C108.063 10.692 108.393 10.164 108.813 9.72C109.245 9.264 109.755 8.916 110.343 8.676C110.943 8.424 111.597 8.298 112.305 8.298C112.929 8.298 113.511 8.418 114.051 8.658C114.591 8.898 115.059 9.228 115.455 9.648C115.851 10.056 116.151 10.548 116.355 11.124C116.571 11.688 116.673 12.306 116.661 12.978L116.643 13.752H108.957L108.543 12.24H114.789L114.501 12.546V12.15C114.465 11.778 114.345 11.454 114.141 11.178C113.937 10.89 113.673 10.668 113.349 10.512C113.037 10.344 112.689 10.26 112.305 10.26C111.717 10.26 111.219 10.374 110.811 10.602C110.415 10.83 110.115 11.16 109.911 11.592C109.707 12.012 109.605 12.54 109.605 13.176C109.605 13.788 109.731 14.322 109.983 14.778C110.247 15.234 110.613 15.588 111.081 15.84C111.561 16.08 112.119 16.2 112.755 16.2C113.199 16.2 113.607 16.128 113.979 15.984C114.351 15.84 114.753 15.582 115.185 15.21L116.283 16.74C115.959 17.04 115.587 17.298 115.167 17.514C114.759 17.718 114.327 17.88 113.871 18C113.415 18.12 112.965 18.18 112.521 18.18Z" fill="white" transform="translate(0 6)"/>
</svg>
