<svg width="185" height="61" viewBox="0 0 185 61" fill="none" xmlns="http://www.w3.org/2000/svg">
<path d="M65.6943 50.3251V18.3H71.6414V44.6774H85.1779V50.3251H65.6943ZM91.0956 50.3251V18.3H111.653V23.9477H97.0377V30.7977H109.015V36.4454H97.0377V44.6774H111.653V50.3251H91.0956ZM119.071 50.3251V18.3H125.101L138.785 39.6484V18.3H144.82V50.3251H138.785L125.101 28.9717V50.3251H119.071ZM153.12 50.3251V18.3H172.354V24.3468H159.068V31.2867H169.736V37.3384H159.068V50.3101L153.12 50.3251ZM178.914 50.3251V18.3H184.861V50.3251H178.914Z" fill="white"/>
<path d="M50.1066 52.7291C50.1221 53.8339 49.9174 54.9307 49.5046 55.9558C49.0917 56.9809 48.4789 57.9139 47.7016 58.7006C46.9244 59.4873 45.9983 60.1119 44.9771 60.5382C43.956 60.9645 42.8601 61.184 41.7532 61.1839H11.4808C9.50085 61.1841 7.55576 60.6641 5.84103 59.676C4.12629 58.688 2.70233 57.2669 1.71228 55.5554C0.722231 53.8439 0.200982 51.9024 0.200928 49.9261C0.200873 47.9498 0.722017 46.0083 1.71197 44.2967L21.5506 9.75998C23.867 5.7562 27.5583 2.72582 31.941 1.2299C36.3238 -0.266015 41.1011 -0.126132 45.3884 1.62366L20.8092 44.512H41.7532C43.9486 44.5118 46.0558 45.3743 47.619 46.9129C49.1823 48.4514 50.0759 50.5424 50.1066 52.7336V52.7291Z" fill="url(#paint0_linear_2512_838)"/>
<path style="mix-blend-mode:overlay" opacity="0.77" d="M43.1507 5.6426L20.8092 44.5077C18.8641 44.5059 16.9537 43.9937 15.2694 43.0225C13.5852 42.0513 12.1864 40.6551 11.2133 38.9741C10.2401 37.293 9.72681 35.3861 9.72486 33.4446C9.72291 31.503 10.2324 29.5951 11.2022 27.9121L21.5776 9.86774C22.6112 8.0597 24.0228 6.49499 25.7162 5.28C27.4097 4.06501 29.3454 3.22822 31.3917 2.8265C33.438 2.42479 35.547 2.46758 37.5753 2.95196C39.6036 3.43634 41.5036 4.35095 43.1462 5.63363L43.1507 5.6426Z" fill="url(#paint1_linear_2512_838)"/>
<defs>
<linearGradient id="paint0_linear_2512_838" x1="25.1454" y1="61.1839" x2="25.1454" y2="0.192851" gradientUnits="userSpaceOnUse">
<stop stop-color="#E151CC"/>
<stop offset="1" stop-color="#0087E9"/>
</linearGradient>
<linearGradient id="paint1_linear_2512_838" x1="26.426" y1="44.5077" x2="26.426" y2="2.55672" gradientUnits="userSpaceOnUse">
<stop stop-opacity="0.6"/>
<stop offset="0.1" stop-opacity="0.45"/>
<stop offset="1" stop-opacity="0"/>
</linearGradient>
</defs>
</svg>