<svg width="470" height="100" viewBox="0 0 470 100" fill="none" xmlns="http://www.w3.org/2000/svg">
<path d="M98.5815 0.12098L61.4657 17.8879C60.7565 18.2481 60.6383 19.3285 61.3475 19.6886C65.721 21.9695 78.8416 26.6513 85.9338 38.0558C85.9338 38.0558 69.8581 22.5698 50 22.5698C30.1418 22.5698 14.0662 38.0558 14.0662 38.0558C21.1584 26.6513 34.279 21.9695 38.6525 19.6886C39.3617 19.3285 39.3617 18.2481 38.5343 17.8879L1.41844 0.12098C0.827419 -0.119113 0 0.361074 0 1.08136V53.5419C0 68.9079 7.68321 83.3135 20.5674 91.4767C20.6856 91.5967 20.8038 91.5967 20.922 91.7168C32.8605 99.1597 44.4444 100 50 100C55.9102 100 67.1395 99.1597 79.078 91.7168C79.1962 91.5967 79.3144 91.5967 79.4326 91.4767C92.3168 83.4335 100 68.9079 100 53.5419V1.08136C99.8818 0.241028 99.1726 -0.23916 98.5815 0.12098Z" fill="white"/>
<path d="M14.657 58.584C15.248 59.4243 19.8579 65.7868 27.6593 65.5467C35.1062 65.4267 39.4797 59.4243 40.0707 58.584" stroke="#001947" stroke-width="5" stroke-miterlimit="10" stroke-linecap="round" stroke-linejoin="round"/>
<path d="M59.929 58.584C60.52 59.4243 65.1299 65.7868 72.9313 65.5467C80.3781 65.4267 84.7516 59.4243 85.3427 58.584" stroke="#001947" stroke-width="5" stroke-miterlimit="10" stroke-linecap="round" stroke-linejoin="round"/>
<path d="M42.5527 70.8286L49.1721 75.3904C49.6449 75.7505 50.3541 75.7505 50.7087 75.3904L57.3281 70.8286C58.1555 70.2284 57.6827 69.1479 56.5007 69.1479H43.2619C42.3163 69.1479 41.7253 70.2284 42.5527 70.8286Z" fill="#001947"/>
<path d="M198.378 34.4052C195.665 31.6121 192.176 30.1379 187.912 30.1379C184.889 30.1379 182.175 30.7586 179.849 31.9224C177.523 33.0862 175.585 34.7155 174.19 36.8879C171.941 32.3879 167.988 30.1379 162.328 30.1379C159.537 30.2155 157.211 30.681 155.351 31.6121C153.49 32.5431 151.862 33.8621 150.544 35.569V33.5488C150.544 31.9221 149.225 30.6034 147.598 30.6034H140V67.615C140 69.2417 141.319 70.5603 142.945 70.5603H150.931V48.7586C150.931 45.8103 151.629 43.4828 153.025 41.7759C154.42 40.069 156.358 39.1379 158.762 39.1379C163.413 39.1379 165.739 42.1638 165.739 48.2155V67.615C165.739 69.2417 167.058 70.5603 168.685 70.5603H176.671V48.681C176.671 45.7328 177.368 43.4052 178.841 41.6983C180.237 39.9914 182.175 39.1379 184.578 39.1379C189.153 39.1379 191.478 42.1638 191.478 48.2155V67.615C191.478 69.2417 192.797 70.5603 194.424 70.5603H202.41V48.6034C202.41 42.0086 201.014 37.2759 198.378 34.4052Z" fill="white"/>
<path d="M220.827 15.7845C219.587 14.6207 218.113 14 216.33 14C214.47 14 212.997 14.6207 211.756 15.7845C210.516 16.9483 209.973 18.4224 209.973 20.1293C209.973 21.9138 210.516 23.3879 211.756 24.5517C212.997 25.7931 214.47 26.3362 216.33 26.3362C218.113 26.3362 219.587 25.7931 220.827 24.5517C221.99 23.3879 222.61 21.9138 222.61 20.1293C222.61 18.4224 221.99 16.9483 220.827 15.7845ZM210.826 30.6034V67.5374C210.826 69.1641 212.145 70.4828 213.771 70.4828H221.757V33.5488C221.757 31.9221 220.439 30.6034 218.812 30.6034H210.826Z" fill="white"/>
<path d="M265.27 34.4828C262.247 31.6121 258.448 30.1379 253.796 30.1379C250.85 30.1379 248.447 30.681 246.509 31.6121C244.493 32.5431 242.865 33.8621 241.469 35.569V33.5488C241.469 31.9221 240.151 30.6034 238.524 30.6034H230.926V67.5374C230.926 69.1641 232.244 70.4828 233.871 70.4828H241.857V50.0776C241.857 46.6638 242.632 43.9483 244.183 42.0086C245.733 40.1466 247.904 39.1379 250.773 39.1379C256.122 39.1379 258.836 42.6293 258.836 49.4569V67.5374C258.836 69.1641 260.154 70.4828 261.781 70.4828H269.767V48.8362C269.767 42.1638 268.216 37.431 265.27 34.4828Z" fill="white"/>
<path d="M287.121 57.2155H276.732C276.887 61.4828 278.748 64.819 282.237 67.3017C285.648 69.7845 290.145 70.9483 295.727 70.9483C299.293 70.9483 302.394 70.4828 305.108 69.3966C307.821 68.3103 309.914 66.8362 311.465 64.819C313.015 62.8793 313.791 60.6293 313.791 57.9914C313.791 53.9569 312.318 51.0862 309.449 49.3793C306.581 47.6724 302.472 46.5086 297.122 45.8879C294.564 45.6552 292.781 45.4224 291.695 45.1897C290.61 45.0345 289.68 44.6466 289.059 44.181C288.362 43.7155 288.051 43.0172 288.051 42.0862C288.051 40.8448 288.672 39.7586 289.912 38.9828C291.153 38.2069 292.858 37.819 294.951 37.819C297.122 37.819 298.983 38.3621 300.378 39.2931C301.774 40.2241 302.627 41.4655 302.782 42.9397H313.17C312.86 38.9052 311.077 35.8017 307.743 33.4741C304.41 31.2241 300.068 30.0603 294.641 29.9828C291.23 29.9828 288.284 30.5259 285.726 31.6121C283.09 32.6983 281.074 34.25 279.678 36.2672C278.283 38.2845 277.585 40.5345 277.585 43.0948C277.585 45.7328 278.283 47.75 279.678 49.3017C281.074 50.8534 282.935 52.0172 285.26 52.7155C287.586 53.4914 290.455 54.0345 294.021 54.5C296.579 54.8103 298.44 55.1207 299.603 55.3534C300.688 55.5862 301.619 55.9741 302.239 56.4397C302.859 56.9828 303.169 57.7586 303.169 58.7672C303.169 60.1638 302.472 61.25 301.154 62.0259C299.758 62.8017 297.975 63.1121 295.649 63.1121C293.168 63.1121 291.23 62.569 289.68 61.4828C288.129 60.3966 287.276 59 287.121 57.2155Z" fill="white"/>
<path d="M316.538 30.6034L328.899 68.4518C329.295 69.6632 330.425 70.4828 331.699 70.4828H341.192L348.324 46.431L354.686 68.358C355.051 69.6167 356.204 70.4828 357.514 70.4828H366.931L378.764 34.4682C379.389 32.5633 377.97 30.6034 375.965 30.6034H368.869L360.729 58.7672L354.012 32.811C353.676 31.5113 352.504 30.6034 351.161 30.6034H343.595L336.075 58.6897L328.698 32.7433C328.338 31.4771 327.181 30.6034 325.865 30.6034H316.538Z" fill="white"/>
<path d="M422.821 61.25H421.58C420.65 61.25 420.03 61.0948 419.642 60.7069C419.177 60.3965 419.022 59.6983 419.022 58.6897V44.6466C419.022 39.9914 417.471 36.3448 414.37 33.8621C411.269 31.3793 406.928 30.1379 401.346 30.1379C395.919 30.1379 391.655 31.3017 388.398 33.5517C385.142 35.8017 383.282 38.9828 382.971 43.0172H393.515C393.748 41.5431 394.523 40.3793 395.841 39.4483C397.082 38.5948 398.787 38.1293 400.803 38.1293C403.051 38.1293 404.834 38.6724 406.23 39.7586C407.548 40.8448 408.246 42.2414 408.246 44.0259V45.9655H400.338C394.368 45.9655 389.794 47.1293 386.693 49.4569C383.592 51.7845 382.041 55.0431 382.041 59.2328C382.041 62.9569 383.359 65.9052 386.073 67.9224C388.786 69.9397 392.352 70.9483 396.849 70.9483C399.795 70.9483 402.353 70.4052 404.524 69.1638C406.617 68 408.401 66.2931 409.874 63.9655C409.719 68.3103 412.199 70.4828 417.239 70.4828H419.875C421.502 70.4828 422.821 69.1641 422.821 67.5374V61.25ZM408.246 53.2586V54.0345C408.168 56.8276 407.315 59 405.687 60.6293C403.981 62.2586 401.733 63.0345 398.942 63.0345C397.082 63.0345 395.686 62.6466 394.601 61.7931C393.515 61.0172 393.05 59.8534 393.05 58.4569C393.05 56.8276 393.67 55.5862 394.911 54.6552C396.151 53.7241 397.934 53.2586 400.26 53.2586H408.246Z" fill="white"/>
<path d="M461.084 32.6983C458.293 30.9914 455.192 30.1379 451.626 30.1379C448.835 30.1379 446.432 30.681 444.338 31.7672C442.245 32.8534 440.539 34.3276 439.222 36.1121V33.5488C439.222 31.9221 437.903 30.6034 436.276 30.6034H428.6V83.0546C428.6 84.6813 429.919 86 431.546 86H439.532V65.4397C442.4 69.1638 446.432 70.9483 451.548 70.9483C455.115 70.9483 458.293 70.1724 461.084 68.4655C463.875 66.7586 466.046 64.431 467.597 61.3276C469.147 58.3017 470 54.7328 470 50.6207C470 46.5862 469.147 42.9397 467.597 39.8362C466.046 36.7328 463.875 34.4052 461.084 32.6983ZM456.2 58.8448C454.339 61.0172 452.014 62.0259 449.068 62.0259C446.121 62.0259 443.718 61.0172 442.013 58.8448C440.229 56.75 439.377 53.9569 439.377 50.4655C439.377 47.0517 440.229 44.3362 442.013 42.2414C443.718 40.1466 446.121 39.0603 449.068 39.0603C452.014 39.0603 454.339 40.1466 456.2 42.2414C457.983 44.3362 458.914 47.0517 458.914 50.4655C458.914 53.8793 457.983 56.6724 456.2 58.8448Z" fill="white"/>
</svg>
