<?xml version="1.0" encoding="UTF-8"?>
<!-- Generator: Adobe Illustrator 27.0.1, SVG Export Plug-In . SVG Version: 6.00 Build 0)  -->
<svg version="1.1" id="Layer_1" xmlns="http://www.w3.org/2000/svg" xmlns:xlink="http://www.w3.org/1999/xlink" x="0px" y="0px" xml:space="preserve" viewBox="0 0 200 43">
<style type="text/css">
	.st0{fill:url(#SVGID_1_);}
</style>
<g>
	
	<linearGradient id="SVGID_1_" gradientUnits="userSpaceOnUse" x1="1.4096" y1="20.9459" x2="58.5193" y2="20.9459">
		<stop offset="0" style="stop-color:#0AD0FF"/>
		<stop offset="1" style="stop-color:#7D76FE"/>
	</linearGradient>
	
	<path d="M58.5,20.2l0-0.3c-0.3-4.1-2-6.3-8.2-12.5l-0.4-0.4C44.5,1.8,41.5-0.2,37,1.6c-1.3,0.5-3.5,2.5-4.4,3.4   c0,0,0,0-0.1,0.1l-2.3,2.5l-2.2-2.6c0,0,0,0-0.1-0.1l-0.2-0.2c-1.8-1.9-3.4-2.9-5.1-3.3C18,0.4,16,1.6,10.3,7.2l-1,1   c-6.2,6.1-8.2,8.9-7.9,13.5l0,0.3c0.3,4.1,2,6.3,8.2,12.5l0.4,0.4c4.1,4,6.8,6.1,9.8,6.1c0.7,0,1.5-0.1,2.3-0.4   c0.3-0.1,0.5-0.2,0.8-0.3c0.3-0.1,0.7-0.3,1.1-0.6c0,0,0,0,0,0c1.2-0.8,2.6-2.1,3.4-2.8c0,0,0,0,0.1-0.1l2.3-2.5l2.2,2.6   c0,0,0,0,0.1,0.1l0.2,0.2c1.8,1.9,3.4,2.9,5.1,3.3c1,0.3,1.9,0.4,2.7,0.4c2.9,0,5.1-1.7,9.6-6.1l1-1C56.8,27.6,58.8,24.8,58.5,20.2   z M34.9,7.4c1.5-1.5,2.9-2.5,3.3-2.7c2.3-0.9,3.8-0.7,9.4,4.8l0.2,0.2c1,1.7-0.8,4.9-4.9,9.1l-5.4-5.5c-2-2-3.3-3.3-4.2-4.2   L34.9,7.4z M4.7,21.4c-0.2-2.9,0.7-4.8,6.9-10.9l1-0.9c4.2-4.1,5.7-5.2,7.3-5.2c0.6,0,1.1,0.1,1.8,0.3c1.1,0.3,2.2,1,3.6,2.4   l1.4,1.5L15.9,19.6c-1.7,1.6-5.7,5.4-7,9.3c-3.4-3.6-4-5.1-4.2-7.3L4.7,21.4z M12.4,32.5l-0.2-0.2c-1-1.7,0.8-4.9,4.9-9.1l5.4,5.5   c2,2,3.3,3.3,4.2,4.2l-1.5,1.7c-0.3,0.3-0.7,0.6-1,0.9c-1.1,1-2.1,1.7-2.3,1.8c-2.2,0.9-3.7,0.8-8.4-3.8   C13,33.1,12.7,32.8,12.4,32.5z M30.2,31.6c-0.1-0.1-0.2-0.2-0.3-0.3c-0.1,0-0.1-0.1-0.2-0.1c-0.5-0.4-2.2-2.1-5-4.9l-5.4-5.6   l10.4-10.5c0.1,0.1,0.1,0.2,0.2,0.2c0.1,0.1,0.1,0.1,0.2,0.1c0.5,0.4,2.2,2.1,5,4.9l5.4,5.6L30.2,31.6z M48.3,31.4l-1,0.9   c-5.7,5.5-6.4,5.6-9.1,4.9c-1.1-0.3-2.2-1-3.6-2.4l-0.2-0.2l-1.2-1.4L44,22.3c1.7-1.6,5.7-5.4,7-9.3c3.4,3.6,4,5.1,4.2,7.3l0,0.2   C55.4,23.4,54.5,25.3,48.3,31.4z" class="st0"/><g>
		<path d="M73.2,9.1h-10V3.6H89v5.4H79v26.8h-5.8V9.1z"/>
		<path d="M100.3,36.3l-5.2-7.9l-5.2,7.9h-6l7.7-11.4L84.4,14h5.9l4.9,7.5L100,14h6l-7.3,10.9l7.7,11.4H100.3z"/>
		<path d="M136.3,14.1c0,6.7-4,10.4-11.6,10.4h-7.6v11.3h-5.8V3.6h13.4C132.3,3.6,136.3,7.4,136.3,14.1z M130.2,14.1    c0-3.5-1.7-5.1-5.8-5.1h-7.2v10.2h7.2C128.5,19.2,130.2,17.6,130.2,14.1z"/>
		<path d="M139.6,7c0-1.9,1.4-3.3,3.4-3.3c2,0,3.4,1.4,3.4,3.3c0,1.9-1.4,3.3-3.4,3.3C140.9,10.3,139.6,8.9,139.6,7z M140.3,14h5.3    v22.3h-5.3V14z"/>
		<path d="M174,25.2c0,7-4.3,11.7-10.2,11.7c-3.3,0-6.2-1.5-7.5-4V45h-5.3V14h5.2v3.6c1.3-2.6,4.2-4.2,7.6-4.2    C169.7,13.4,174,18.2,174,25.2z M168.5,25.2c0-4.1-2.4-6.9-6.3-6.9c-3.8,0-6.3,2.8-6.3,6.9c0,4,2.4,6.9,6.3,6.9    C166.1,32,168.5,29.2,168.5,25.2z"/>
		<path d="M198.5,26.7h-16.6c0.6,3.6,2.9,5.5,6.6,5.5c2.5,0,4.6-0.9,6.2-2.8l3.2,3.2c-2.1,2.7-5.5,4.3-9.6,4.3    c-7.1,0-11.8-4.6-11.8-11.6c0-6.9,4.5-11.9,11.3-11.9c6.5,0,10.8,4.5,10.8,11.3C198.6,25.3,198.5,26,198.5,26.7z M181.9,23.1h11.4    c-0.3-3.3-2.3-5.1-5.5-5.1C184.5,18,182.4,19.9,181.9,23.1z"/>
	</g>
</g>
</svg>